<?xml version="1.0" encoding="UTF-8" standalone="no"?>
<!-- Copyright 2017 mathsisfun.com -->
<svg xmlns="http://www.w3.org/2000/svg" width="445.2" height="193.1" version="1.1">
<defs>
<marker id="id02" style="overflow:visible;" orient="auto">
<path transform="matrix(0.4,0,0,0.4,4,0)" style="stroke:black; stroke-width:1pt;" d="M 0,0 5,-5 -12.5,0 5,5 0,0 Z"/>
</marker>
<marker id="id01" style="overflow:visible;" orient="auto">
<path transform="matrix(-0.4,0,0,-0.4,-4,0)" style="stroke:black; stroke-width:1pt;" d="M 0,0 5,-5 -12.5,0 5,5 0,0 Z"/>
</marker>
</defs>
<g transform="translate(217.71107,-806.60215)">
<g transform="matrix(-0.4509319,0.01118519,0.00674622,0.74764255,90.421256,679.34059)">
<path style="overflow:visible; fill:#204a87; fill-opacity:0.92; stroke-width:7.2;" d="m 562.7,370.4 c -0,0 -0,-0 -0,-0 -0,-0 -0.2,-0 -0.3,-0.1 -0.2,-0 -0.5,-0.1 -0.7,-0.2 -0.4,-0 -0.8,-0.2 -1.3,-0.3 -0.6,-0.1 -1.1,-0.2 -1.7,-0.3 -0.8,-0.2 -1.5,-0.3 -2.3,-0.5 -0.9,-0.2 -1.9,-0.3 -2.8,-0.5 -1.1,-0.2 -2.2,-0.4 -3.3,-0.6 -1.3,-0.2 -2.7,-0.5 -4,-0.7 -1.6,-0.3 -3.3,-0.5 -4.9,-0.7 -1.9,-0.3 -3.9,-0.5 -5.8,-0.7 -2.2,-0.2 -4.5,-0.5 -6.7,-0.6 -2.4,-0.2 -4.9,-0.4 -7.3,-0.5 -2.7,-0.2 -5.3,-0.3 -8,-0.4 -2.9,-0.1 -5.7,-0.2 -8.6,-0.3 -3,-0 -6,-0.1 -9.1,-0.2 -3.1,-0 -6.3,-0 -9.4,-0.1 -3.2,-0 -6.5,-0 -9.7,-0 -3.3,-0 -6.6,-0 -9.9,-0 -3.4,-0 -6.8,-0 -10.1,-0 -3.4,-0 -6.9,-0 -10.3,0 -3.4,0 -6.9,0 -10.3,0.2 -3.4,0 -6.8,0.2 -10.1,0.3 -3.3,0.1 -6.7,0.2 -10,0.4 -3.3,0.1 -6.6,0.3 -9.9,0.5 -3.2,0.2 -6.5,0.4 -9.7,0.6 -3.2,0.2 -6.4,0.4 -9.6,0.6 -3.1,0.2 -6.2,0.4 -9.4,0.6 -3,0.2 -6.1,0.4 -9.1,0.6 -2.9,0.2 -5.8,0.4 -8.8,0.7 -2.9,0.2 -5.7,0.5 -8.6,0.7 -2.8,0.2 -5.6,0.5 -8.4,0.7 -2.8,0.2 -5.5,0.5 -8.3,0.8 -2.7,0.3 -5.4,0.5 -8.1,0.8 -2.7,0.3 -5.4,0.5 -8.1,0.8 -2.7,0.3 -5.4,0.5 -8.1,0.8 -2.7,0.3 -5.4,0.5 -8.2,0.8 -2.7,0.3 -5.5,0.5 -8.2,0.8 -2.7,0.3 -5.5,0.5 -8.2,0.8 -2.8,0.3 -5.5,0.5 -8.3,0.8 -2.8,0.3 -5.6,0.5 -8.4,0.7 -2.8,0.2 -5.6,0.4 -8.4,0.5 -2.9,0.2 -5.8,0.3 -8.7,0.4 -2.9,0.1 -5.9,0.2 -8.8,0.4 -3,0.1 -5.9,0.2 -8.9,0.3 -2.9,0 -5.9,0.2 -8.8,0.2 -2.9,0 -5.8,0.1 -8.7,0.2 -2.8,0 -5.6,0 -8.4,0.1 -2.7,0 -5.4,0 -8.1,0 -2.6,0 -5.2,0 -7.8,0 -2.6,-0 -5.1,-0 -7.7,-0 -2.5,-0 -5,-0.1 -7.5,-0.2 -2.4,-0 -4.8,-0.1 -7.2,-0.2 -2.3,-0 -4.5,-0.2 -6.8,-0.3 -2.1,-0.1 -4.2,-0.3 -6.3,-0.4 -1.9,-0.1 -3.8,-0.3 -5.7,-0.5 -1.7,-0.2 -3.4,-0.4 -5.1,-0.6 -1.5,-0.2 -3.1,-0.5 -4.6,-0.8 -1.4,-0.2 -2.7,-0.5 -4.1,-0.8 -1.2,-0.3 -2.3,-0.5 -3.5,-0.8 -1,-0.2 -2,-0.5 -2.9,-0.8 -0.9,-0.3 -1.8,-0.5 -2.7,-0.8 -0.9,-0.3 -1.7,-0.5 -2.5,-0.8 -0.8,-0.3 -1.7,-0.6 -2.5,-0.8 -0.8,-0.2 -1.5,-0.5 -2.3,-0.8 -0.6,-0.2 -1.2,-0.4 -1.8,-0.6 l 3,4.3 c 0.6,0.2 1.2,0.4 1.7,0.6 0.8,0.2 1.5,0.5 2.3,0.8 0.8,0.3 1.7,0.6 2.5,0.8 0.9,0.3 1.7,0.5 2.6,0.8 0.9,0.3 1.8,0.5 2.7,0.8 1,0.3 2,0.5 3,0.7 1.2,0.3 2.4,0.5 3.6,0.8 1.4,0.3 2.8,0.5 4.2,0.8 1.6,0.3 3.1,0.5 4.7,0.7 1.7,0.2 3.5,0.4 5.2,0.6 1.9,0.2 3.8,0.3 5.8,0.5 2.1,0.1 4.2,0.3 6.4,0.4 2.3,0.1 4.5,0.2 6.8,0.3 2.4,0 4.8,0.1 7.2,0.2 2.5,0 5,0.1 7.5,0.2 2.6,0 5.1,0 7.7,0 2.6,3.8e-4 5.2,-10e-4 7.8,-0 2.7,-0 5.4,-0 8.1,-0.1 2.8,-0 5.6,-0 8.5,-0.1 2.9,-0 5.8,-0.1 8.7,-0.2 3,-0 5.9,-0.2 8.9,-0.3 3,-0.1 5.9,-0.2 8.9,-0.3 3,-0.1 5.9,-0.2 8.9,-0.4 2.9,-0.1 5.8,-0.3 8.7,-0.4 2.8,-0.2 5.7,-0.3 8.5,-0.6 2.8,-0.2 5.6,-0.4 8.4,-0.7 2.8,-0.3 5.5,-0.5 8.3,-0.8 2.7,-0.3 5.5,-0.5 8.2,-0.8 2.7,-0.3 5.5,-0.5 8.2,-0.8 2.7,-0.3 5.5,-0.5 8.2,-0.8 2.7,-0.3 5.4,-0.5 8.1,-0.8 2.7,-0.3 5.4,-0.5 8.1,-0.8 2.7,-0.3 5.4,-0.6 8.1,-0.8 2.8,-0.3 5.5,-0.5 8.3,-0.8 2.8,-0.2 5.6,-0.5 8.4,-0.7 2.9,-0.2 5.7,-0.5 8.6,-0.7 2.9,-0.2 5.8,-0.4 8.8,-0.6 3,-0.2 6,-0.4 9.1,-0.6 3.1,-0.2 6.2,-0.4 9.3,-0.6 3.2,-0.2 6.4,-0.4 9.6,-0.6 3.2,-0.2 6.4,-0.4 9.7,-0.5 3.3,-0.2 6.6,-0.3 9.9,-0.5 3.3,-0.1 6.7,-0.3 10,-0.4 3.4,-0.1 6.7,-0.2 10.1,-0.3 3.4,-0 6.9,-0.1 10.3,-0.1 3.4,-0 6.9,-0 10.3,0 3.4,0 6.8,0 10.1,0 3.3,0 6.6,0 9.9,0 3.2,0 6.5,0 9.7,0 3.1,0 6.3,0 9.4,0.1 3,0 6,0.1 9,0.2 2.9,0.1 5.7,0.2 8.5,0.3 2.6,0.1 5.3,0.3 7.9,0.4 2.4,0.2 4.9,0.3 7.3,0.6 2.2,0.2 4.4,0.4 6.6,0.7 1.9,0.2 3.8,0.5 5.8,0.7 1.6,0.2 3.2,0.5 4.9,0.8 1.3,0.2 2.7,0.5 4,0.7 1.1,0.2 2.2,0.4 3.3,0.6 0.9,0.2 1.9,0.3 2.8,0.5 0.8,0.2 1.5,0.3 2.3,0.5 0.6,0.1 1.1,0.2 1.7,0.4 0.4,0 0.8,0.2 1.3,0.3 0.3,0 0.6,0 0.8,0.1 0.2,-0 0.3,-0 0.5,-0 0,-0 0.1,-0 0.2,-0 l -3.8,-3.9 z"/>
<path style="overflow:visible; fill:#204a87; fill-opacity:0.92; stroke-width:7.2;" d="m 526.8,355.8 c 0,-0.2 -0.1,-0.5 -0.2,-0.8 -0,-0 -0,-0.2 -0.1,-0.3 0.1,0 0.3,0.2 0.4,0.2 0.2,0.1 0.5,0.2 0.7,0.3 0.4,0.1 0.8,0.3 1.2,0.4 0.5,0.2 1.1,0.4 1.6,0.6 0.6,0.2 1.2,0.4 1.8,0.7 0.7,0.2 1.3,0.5 2,0.8 0.7,0.3 1.5,0.6 2.2,0.9 0.8,0.3 1.6,0.6 2.4,0.9 0.9,0.3 1.7,0.5 2.6,0.8 0.9,0.3 1.8,0.5 2.7,0.8 0.9,0.2 1.8,0.5 2.7,0.7 0.9,0.2 1.8,0.5 2.6,0.8 0.8,0.2 1.6,0.5 2.4,0.8 0.8,0.3 1.6,0.5 2.3,0.7 0.8,0.2 1.5,0.5 2.3,0.7 0.7,0.2 1.5,0.5 2.2,0.7 0.7,0.3 1.5,0.5 2.2,0.7 0.8,0.2 1.5,0.5 2.3,0.7 0.8,0.2 1.6,0.4 2.4,0.6 0.9,0.2 1.7,0.3 2.6,0.5 0.9,0.1 1.9,0.3 2.8,0.4 0.9,0.1 1.7,0.3 2.6,0.4 0.8,0.1 1.5,0.2 2.3,0.3 l -4.4,3.2 c -0.8,-0.1 -1.5,-0.2 -2.3,-0.3 -0.9,-0.1 -1.7,-0.3 -2.6,-0.4 -1,-0.2 -1.9,-0.3 -2.9,-0.5 -0.9,-0.2 -1.8,-0.4 -2.7,-0.6 -0.8,-0.2 -1.7,-0.4 -2.5,-0.7 -0.8,-0.2 -1.6,-0.5 -2.4,-0.8 -0.7,-0.3 -1.5,-0.5 -2.2,-0.8 -0.7,-0.2 -1.4,-0.5 -2.2,-0.7 -0.8,-0.2 -1.5,-0.5 -2.3,-0.7 -0.8,-0.2 -1.6,-0.5 -2.3,-0.7 -0.8,-0.2 -1.6,-0.5 -2.4,-0.7 -0.9,-0.2 -1.7,-0.5 -2.6,-0.7 -0.9,-0.3 -1.8,-0.5 -2.7,-0.8 -0.9,-0.3 -1.8,-0.5 -2.7,-0.8 -0.9,-0.3 -1.8,-0.6 -2.7,-0.9 -0.8,-0.3 -1.7,-0.6 -2.5,-1 -0.7,-0.3 -1.5,-0.6 -2.2,-0.9 -0.7,-0.2 -1.3,-0.5 -2,-0.7 -0.6,-0.2 -1.2,-0.4 -1.8,-0.7 -0.5,-0.2 -1.1,-0.4 -1.6,-0.6 -0.5,-0.2 -0.9,-0.4 -1.4,-0.6 -0.3,-0.2 -0.6,-0.3 -0.8,-0.5 -0.1,-0 -0.2,-0.1 -0.3,-0.2 -0.1,-0.2 -0.4,-0.3 -0.4,-0.5 -0,-0.3 -0.3,-0.5 -0.3,-0.8 l 6,-0 z"/>
<path style="overflow:visible; fill:#204a87; fill-opacity:0.92; stroke-width:7.2;" d="m 523.4,377.6 c 0,-0 0,-0.2 0,-0.3 -0,-0.2 0.2,-0.4 0.2,-0.6 0.2,-0.3 0.5,-0.5 0.8,-0.7 0.4,-0.3 1,-0.4 1.4,-0.7 0.6,-0.2 1.3,-0.4 1.9,-0.6 0.8,-0.2 1.6,-0.4 2.3,-0.6 0.8,-0.2 1.7,-0.3 2.5,-0.5 2.3,-0.4 4.7,-0.7 7,-1.1 0.8,-0.1 1.7,-0.2 2.6,-0.3 0.9,-0.1 1.7,-0.2 2.6,-0.3 0.8,-0.1 1.7,-0.2 2.6,-0.3 0.9,-0 1.8,-0.2 2.7,-0.2 0.9,-0 1.7,-0.1 2.6,-0.2 0.8,-0 1.7,-0.1 2.5,-0.2 0.9,-0 1.7,-0.1 2.6,-0.2 0.8,-0 1.7,-0.1 2.5,-0.2 0.8,-0 1.6,-0 2.5,-0.1 0.8,-0 1.5,-0 2.3,-0 0.8,3e-5 1.5,0 2.3,0 0.8,0 1.6,0 2.4,0.1 0.8,0 1.5,0 2.3,0.1 0.6,0 1.2,0 1.8,0.1 0.2,0 0.4,0 0.5,0 l -4.3,3.3 c -0.2,-0 -0.3,-0 -0.5,-0 -0.6,-0 -1.2,-0 -1.8,-0.1 -0.7,-0 -1.5,-0 -2.2,-0.1 -0.8,-0 -1.6,-0 -2.3,-0 -0.7,10e-4 -1.5,-0 -2.2,0 -0.8,0 -1.5,0 -2.3,0 -0.8,0 -1.6,0 -2.4,0.2 -0.8,0 -1.7,0.1 -2.5,0.2 -0.9,0 -1.7,0.1 -2.6,0.2 -0.8,0 -1.7,0.1 -2.5,0.2 -0.9,0 -1.7,0.1 -2.6,0.2 -0.9,0 -1.8,0.2 -2.6,0.3 -0.8,0 -1.7,0.2 -2.5,0.3 -0.9,0.1 -1.7,0.2 -2.6,0.3 -0.8,0.1 -1.7,0.2 -2.5,0.4 0.8,-0.1 3,-0.5 2.3,-0.4 -0.8,0.1 -1.7,0.3 -2.5,0.4 -0.8,0.1 -1.5,0.3 -2.3,0.4 -0.6,0.1 -1.2,0.3 -1.8,0.4 -0.4,0.1 -0.9,0.2 -1.3,0.4 -0.2,0 -0.4,0.1 -0.6,0.2 -0,-0 -0.2,-0 -0.2,-0.1 -10e-5,-5e-4 -0,-0.3 -0,-0.2 l -6,0 z"/>
</g>
<text x="-128.9" y="923.5" style="font-family:'Courier New'; font-weight:bold; font-size:49.5px; overflow:visible; fill:#3465a4; stroke-width:1px;">17.591</text>
<path style="marker-end:url(#id01); overflow:visible; fill:#fb0003; stroke:#010000; stroke-width:1.35;" d="m -53.7,847.8 0,52.9"/>
<text x="-103.7" y="841.1" style="font-family:Comic Sans MS; font-size:16.4px; overflow:visible; fill:#2e3436; stroke-width:1px;">Decimal Point</text>
<path style="marker-start:url(#id02); overflow:visible; fill:none; stroke:#010000; stroke-width:1.35;" d="m -24,885.6 67.1,-67.1 35.4,0"/>
<path style="marker-start:url(#id02); overflow:visible; fill:none; stroke:#010000; stroke-width:1.35;" d="m 5.9,884.9 48.2,-46.7 22,0"/>
<path style="marker-start:url(#id02); overflow:visible; fill:none; stroke:#010000; stroke-width:1.35;" d="m 33.5,885.7 26.5,-27 13.9,0"/>
<path style="marker-start:url(#id02); overflow:visible; fill:none; stroke:#010000; stroke-width:1.35;" d="m -92.7,884.9 -49.9,-48.7 -26.4,0"/>
<path style="marker-start:url(#id02); overflow:visible; fill:none; stroke:#010000; stroke-width:1.35;" d="m -123.1,886.2 -33.1,-31.1 -21.3,0"/>
<text x="-210.8" y="835" style="font-family:Comic Sans MS; font-size:15px; overflow:visible; fill:#3465a4; stroke-width:1px;">Ones</text>
<text x="-218.6" y="855.9" style="font-family:Comic Sans MS; font-size:15px; overflow:visible; fill:#3465a4; stroke-width:1px;">Tens</text>
<text x="82.9" y="818.5" style="font-family:Comic Sans MS; font-size:15px; overflow:visible; fill:#8f5902; stroke-width:1px;">1/10 (tenths)</text>
<text x="81.5" y="839.4" style="font-family:Comic Sans MS; font-size:15px; overflow:visible; fill:#8f5902; stroke-width:1px;">1/100 (hundredths)</text>
<text x="78.1" y="861.2" style="font-family:Comic Sans MS; font-size:15px; overflow:visible; fill:#8f5902; stroke-width:1px;">1/1000 (thousandths)</text>
<g transform="matrix(0.44309252,-0.01118519,-0.00662894,-0.74764255,-164.69647,1270.7913)">
<path style="overflow:visible; fill:#ef2929; fill-opacity:0.92; stroke-width:7.2;" d="m 562.7,370.4 c -0,0 -0,-0 -0,-0 -0,-0 -0.2,-0 -0.3,-0.1 -0.2,-0 -0.5,-0.1 -0.7,-0.2 -0.4,-0 -0.8,-0.2 -1.3,-0.3 -0.6,-0.1 -1.1,-0.2 -1.7,-0.3 -0.8,-0.2 -1.5,-0.3 -2.3,-0.5 -0.9,-0.2 -1.9,-0.3 -2.8,-0.5 -1.1,-0.2 -2.2,-0.4 -3.3,-0.6 -1.3,-0.2 -2.7,-0.5 -4,-0.7 -1.6,-0.3 -3.3,-0.5 -4.9,-0.7 -1.9,-0.3 -3.9,-0.5 -5.8,-0.7 -2.2,-0.2 -4.5,-0.5 -6.7,-0.6 -2.4,-0.2 -4.9,-0.4 -7.3,-0.5 -2.7,-0.2 -5.3,-0.3 -8,-0.4 -2.9,-0.1 -5.7,-0.2 -8.6,-0.3 -3,-0 -6,-0.1 -9.1,-0.2 -3.1,-0 -6.3,-0 -9.4,-0.1 -3.2,-0 -6.5,-0 -9.7,-0 -3.3,-0 -6.6,-0 -9.9,-0 -3.4,-0 -6.8,-0 -10.1,-0 -3.4,-0 -6.9,-0 -10.3,0 -3.4,0 -6.9,0 -10.3,0.2 -3.4,0 -6.8,0.2 -10.1,0.3 -3.3,0.1 -6.7,0.2 -10,0.4 -3.3,0.1 -6.6,0.3 -9.9,0.5 -3.2,0.2 -6.5,0.4 -9.7,0.6 -3.2,0.2 -6.4,0.4 -9.6,0.6 -3.1,0.2 -6.2,0.4 -9.4,0.6 -3,0.2 -6.1,0.4 -9.1,0.6 -2.9,0.2 -5.8,0.4 -8.8,0.7 -2.9,0.2 -5.7,0.5 -8.6,0.7 -2.8,0.2 -5.6,0.5 -8.4,0.7 -2.8,0.2 -5.5,0.5 -8.3,0.8 -2.7,0.3 -5.4,0.5 -8.1,0.8 -2.7,0.3 -5.4,0.5 -8.1,0.8 -2.7,0.3 -5.4,0.5 -8.1,0.8 -2.7,0.3 -5.4,0.5 -8.2,0.8 -2.7,0.3 -5.5,0.5 -8.2,0.8 -2.7,0.3 -5.5,0.5 -8.2,0.8 -2.8,0.3 -5.5,0.5 -8.3,0.8 -2.8,0.3 -5.6,0.5 -8.4,0.7 -2.8,0.2 -5.6,0.4 -8.4,0.5 -2.9,0.2 -5.8,0.3 -8.7,0.4 -2.9,0.1 -5.9,0.2 -8.8,0.4 -3,0.1 -5.9,0.2 -8.9,0.3 -2.9,0 -5.9,0.2 -8.8,0.2 -2.9,0 -5.8,0.1 -8.7,0.2 -2.8,0 -5.6,0 -8.4,0.1 -2.7,0 -5.4,0 -8.1,0 -2.6,0 -5.2,0 -7.8,0 -2.6,-0 -5.1,-0 -7.7,-0 -2.5,-0 -5,-0.1 -7.5,-0.2 -2.4,-0 -4.8,-0.1 -7.2,-0.2 -2.3,-0 -4.5,-0.2 -6.8,-0.3 -2.1,-0.1 -4.2,-0.3 -6.3,-0.4 -1.9,-0.1 -3.8,-0.3 -5.7,-0.5 -1.7,-0.2 -3.4,-0.4 -5.1,-0.6 -1.5,-0.2 -3.1,-0.5 -4.6,-0.8 -1.4,-0.2 -2.7,-0.5 -4.1,-0.8 -1.2,-0.3 -2.3,-0.5 -3.5,-0.8 -1,-0.2 -2,-0.5 -2.9,-0.8 -0.9,-0.3 -1.8,-0.5 -2.7,-0.8 -0.9,-0.3 -1.7,-0.5 -2.5,-0.8 -0.8,-0.3 -1.7,-0.6 -2.5,-0.8 -0.8,-0.2 -1.5,-0.5 -2.3,-0.8 -0.6,-0.2 -1.2,-0.4 -1.8,-0.6 l 3,4.3 c 0.6,0.2 1.2,0.4 1.7,0.6 0.8,0.2 1.5,0.5 2.3,0.8 0.8,0.3 1.7,0.6 2.5,0.8 0.9,0.3 1.7,0.5 2.6,0.8 0.9,0.3 1.8,0.5 2.7,0.8 1,0.3 2,0.5 3,0.7 1.2,0.3 2.4,0.5 3.6,0.8 1.4,0.3 2.8,0.5 4.2,0.8 1.6,0.3 3.1,0.5 4.7,0.7 1.7,0.2 3.5,0.4 5.2,0.6 1.9,0.2 3.8,0.3 5.8,0.5 2.1,0.1 4.2,0.3 6.4,0.4 2.3,0.1 4.5,0.2 6.8,0.3 2.4,0 4.8,0.1 7.2,0.2 2.5,0 5,0.1 7.5,0.2 2.6,0 5.1,0 7.7,0 2.6,3.8e-4 5.2,-10e-4 7.8,-0 2.7,-0 5.4,-0 8.1,-0.1 2.8,-0 5.6,-0 8.5,-0.1 2.9,-0 5.8,-0.1 8.7,-0.2 3,-0 5.9,-0.2 8.9,-0.3 3,-0.1 5.9,-0.2 8.9,-0.3 3,-0.1 5.9,-0.2 8.9,-0.4 2.9,-0.1 5.8,-0.3 8.7,-0.4 2.8,-0.2 5.7,-0.3 8.5,-0.6 2.8,-0.2 5.6,-0.4 8.4,-0.7 2.8,-0.3 5.5,-0.5 8.3,-0.8 2.7,-0.3 5.5,-0.5 8.2,-0.8 2.7,-0.3 5.5,-0.5 8.2,-0.8 2.7,-0.3 5.5,-0.5 8.2,-0.8 2.7,-0.3 5.4,-0.5 8.1,-0.8 2.7,-0.3 5.4,-0.5 8.1,-0.8 2.7,-0.3 5.4,-0.6 8.1,-0.8 2.8,-0.3 5.5,-0.5 8.3,-0.8 2.8,-0.2 5.6,-0.5 8.4,-0.7 2.9,-0.2 5.7,-0.5 8.6,-0.7 2.9,-0.2 5.8,-0.4 8.8,-0.6 3,-0.2 6,-0.4 9.1,-0.6 3.1,-0.2 6.2,-0.4 9.3,-0.6 3.2,-0.2 6.4,-0.4 9.6,-0.6 3.2,-0.2 6.4,-0.4 9.7,-0.5 3.3,-0.2 6.6,-0.3 9.9,-0.5 3.3,-0.1 6.7,-0.3 10,-0.4 3.4,-0.1 6.7,-0.2 10.1,-0.3 3.4,-0 6.9,-0.1 10.3,-0.1 3.4,-0 6.9,-0 10.3,0 3.4,0 6.8,0 10.1,0 3.3,0 6.6,0 9.9,0 3.2,0 6.5,0 9.7,0 3.1,0 6.3,0 9.4,0.1 3,0 6,0.1 9,0.2 2.9,0.1 5.7,0.2 8.5,0.3 2.6,0.1 5.3,0.3 7.9,0.4 2.4,0.2 4.9,0.3 7.3,0.6 2.2,0.2 4.4,0.4 6.6,0.7 1.9,0.2 3.8,0.5 5.8,0.7 1.6,0.2 3.2,0.5 4.9,0.8 1.3,0.2 2.7,0.5 4,0.7 1.1,0.2 2.2,0.4 3.3,0.6 0.9,0.2 1.9,0.3 2.8,0.5 0.8,0.2 1.5,0.3 2.3,0.5 0.6,0.1 1.1,0.2 1.7,0.4 0.4,0 0.8,0.2 1.3,0.3 0.3,0 0.6,0 0.8,0.1 0.2,-0 0.3,-0 0.5,-0 0,-0 0.1,-0 0.2,-0 l -3.8,-3.9 z"/>
<path style="overflow:visible; fill:#ef2929; fill-opacity:0.92; stroke-width:7.2;" d="m 526.8,355.8 c 0,-0.2 -0.1,-0.5 -0.2,-0.8 -0,-0 -0,-0.2 -0.1,-0.3 0.1,0 0.3,0.2 0.4,0.2 0.2,0.1 0.5,0.2 0.7,0.3 0.4,0.1 0.8,0.3 1.2,0.4 0.5,0.2 1.1,0.4 1.6,0.6 0.6,0.2 1.2,0.4 1.8,0.7 0.7,0.2 1.3,0.5 2,0.8 0.7,0.3 1.5,0.6 2.2,0.9 0.8,0.3 1.6,0.6 2.4,0.9 0.9,0.3 1.7,0.5 2.6,0.8 0.9,0.3 1.8,0.5 2.7,0.8 0.9,0.2 1.8,0.5 2.7,0.7 0.9,0.2 1.8,0.5 2.6,0.8 0.8,0.2 1.6,0.5 2.4,0.8 0.8,0.3 1.6,0.5 2.3,0.7 0.8,0.2 1.5,0.5 2.3,0.7 0.7,0.2 1.5,0.5 2.2,0.7 0.7,0.3 1.5,0.5 2.2,0.7 0.8,0.2 1.5,0.5 2.3,0.7 0.8,0.2 1.6,0.4 2.4,0.6 0.9,0.2 1.7,0.3 2.6,0.5 0.9,0.1 1.9,0.3 2.8,0.4 0.9,0.1 1.7,0.3 2.6,0.4 0.8,0.1 1.5,0.2 2.3,0.3 l -4.4,3.2 c -0.8,-0.1 -1.5,-0.2 -2.3,-0.3 -0.9,-0.1 -1.7,-0.3 -2.6,-0.4 -1,-0.2 -1.9,-0.3 -2.9,-0.5 -0.9,-0.2 -1.8,-0.4 -2.7,-0.6 -0.8,-0.2 -1.7,-0.4 -2.5,-0.7 -0.8,-0.2 -1.6,-0.5 -2.4,-0.8 -0.7,-0.3 -1.5,-0.5 -2.2,-0.8 -0.7,-0.2 -1.4,-0.5 -2.2,-0.7 -0.8,-0.2 -1.5,-0.5 -2.3,-0.7 -0.8,-0.2 -1.6,-0.5 -2.3,-0.7 -0.8,-0.2 -1.6,-0.5 -2.4,-0.7 -0.9,-0.2 -1.7,-0.5 -2.6,-0.7 -0.9,-0.3 -1.8,-0.5 -2.7,-0.8 -0.9,-0.3 -1.8,-0.5 -2.7,-0.8 -0.9,-0.3 -1.8,-0.6 -2.7,-0.9 -0.8,-0.3 -1.7,-0.6 -2.5,-1 -0.7,-0.3 -1.5,-0.6 -2.2,-0.9 -0.7,-0.2 -1.3,-0.5 -2,-0.7 -0.6,-0.2 -1.2,-0.4 -1.8,-0.7 -0.5,-0.2 -1.1,-0.4 -1.6,-0.6 -0.5,-0.2 -0.9,-0.4 -1.4,-0.6 -0.3,-0.2 -0.6,-0.3 -0.8,-0.5 -0.1,-0 -0.2,-0.1 -0.3,-0.2 -0.1,-0.2 -0.4,-0.3 -0.4,-0.5 -0,-0.3 -0.3,-0.5 -0.3,-0.8 l 6,-0 z"/>
<path style="overflow:visible; fill:#ef2929; fill-opacity:0.92; stroke-width:7.2;" d="m 523.4,377.6 c 0,-0 0,-0.2 0,-0.3 -0,-0.2 0.2,-0.4 0.2,-0.6 0.2,-0.3 0.5,-0.5 0.8,-0.7 0.4,-0.3 1,-0.4 1.4,-0.7 0.6,-0.2 1.3,-0.4 1.9,-0.6 0.8,-0.2 1.6,-0.4 2.3,-0.6 0.8,-0.2 1.7,-0.3 2.5,-0.5 2.3,-0.4 4.7,-0.7 7,-1.1 0.8,-0.1 1.7,-0.2 2.6,-0.3 0.9,-0.1 1.7,-0.2 2.6,-0.3 0.8,-0.1 1.7,-0.2 2.6,-0.3 0.9,-0 1.8,-0.2 2.7,-0.2 0.9,-0 1.7,-0.1 2.6,-0.2 0.8,-0 1.7,-0.1 2.5,-0.2 0.9,-0 1.7,-0.1 2.6,-0.2 0.8,-0 1.7,-0.1 2.5,-0.2 0.8,-0 1.6,-0 2.5,-0.1 0.8,-0 1.5,-0 2.3,-0 0.8,3e-5 1.5,0 2.3,0 0.8,0 1.6,0 2.4,0.1 0.8,0 1.5,0 2.3,0.1 0.6,0 1.2,0 1.8,0.1 0.2,0 0.4,0 0.5,0 l -4.3,3.3 c -0.2,-0 -0.3,-0 -0.5,-0 -0.6,-0 -1.2,-0 -1.8,-0.1 -0.7,-0 -1.5,-0 -2.2,-0.1 -0.8,-0 -1.6,-0 -2.3,-0 -0.7,10e-4 -1.5,-0 -2.2,0 -0.8,0 -1.5,0 -2.3,0 -0.8,0 -1.6,0 -2.4,0.2 -0.8,0 -1.7,0.1 -2.5,0.2 -0.9,0 -1.7,0.1 -2.6,0.2 -0.8,0 -1.7,0.1 -2.5,0.2 -0.9,0 -1.7,0.1 -2.6,0.2 -0.9,0 -1.8,0.2 -2.6,0.3 -0.8,0 -1.7,0.2 -2.5,0.3 -0.9,0.1 -1.7,0.2 -2.6,0.3 -0.8,0.1 -1.7,0.2 -2.5,0.4 0.8,-0.1 3,-0.5 2.3,-0.4 -0.8,0.1 -1.7,0.3 -2.5,0.4 -0.8,0.1 -1.5,0.3 -2.3,0.4 -0.6,0.1 -1.2,0.3 -1.8,0.4 -0.4,0.1 -0.9,0.2 -1.3,0.4 -0.2,0 -0.4,0.1 -0.6,0.2 -0,-0 -0.2,-0 -0.2,-0.1 -10e-5,-5e-4 -0,-0.3 -0,-0.2 l -6,0 z"/>
</g>
<text x="-137.9" y="951.7" style="font-family:Comic Sans MS; font-size:15px; overflow:visible; opacity:0.85; fill:#204a87; stroke-width:1px;">10x Bigger</text>
<text x="-19.6" y="984.4" style="font-family:Comic Sans MS; font-size:15px; overflow:visible; opacity:0.85; fill:#ef2929; stroke-width:1px;">10x Smaller</text>
</g>
</svg>
